# xmcd
#
# Track frame offsets:
#	150
#	17472
#	31690
#	44965
#	60395
#	79137
#	101745
#	115902
#	130997
#	146630
#	168860
#	181057
#
# Disc length: 2603 seconds
#
# Revision: 0
# Processed by: cddbd v1.4PL0 Copyright (c) Steve Scherf et al.
# Submitted via: EasyCDDAExtractor 4.5.2.1
#
DISCID=990a290c
DTITLE=Patrick Tanner - Done broke down
DYEAR=1900
DGENRE=Country
TTITLE0=perfectly
TTITLE1=she falls down
TTITLE2=until it brakes
TTITLE3=gonna lose
TTITLE4=love for real
TTITLE5=my angel
TTITLE6=i hate the sun
TTITLE7=she says she loves me
TTITLE8=won´t be long
TTITLE9=i´ll be your wheels
TTITLE10=thank´s a lot
TTITLE11=love enough
EXTD=
EXTT0=
EXTT1=
EXTT2=
EXTT3=
EXTT4=
EXTT5=
EXTT6=
EXTT7=
EXTT8=
EXTT9=
EXTT10=
EXTT11=
PLAYORDER=
